<?xml version="1.0" encoding="UTF-8" standalone="no"?>
<!-- Created with Inkscape (http://www.inkscape.org/) -->

<svg
   width="120mm"
   height="30mm"
   viewBox="0 0 120 30"
   version="1.1"
   id="svg1"
   inkscape:version="1.3.2 (091e20e, 2023-11-25, custom)"
   sodipodi:docname="circulo1.svg"
   xmlns:inkscape="http://www.inkscape.org/namespaces/inkscape"
   xmlns:sodipodi="http://sodipodi.sourceforge.net/DTD/sodipodi-0.dtd"
   xmlns="http://www.w3.org/2000/svg"
   xmlns:svg="http://www.w3.org/2000/svg">
  <sodipodi:namedview
     id="namedview1"
     pagecolor="#505050"
     bordercolor="#eeeeee"
     borderopacity="1"
     inkscape:showpageshadow="0"
     inkscape:pageopacity="0"
     inkscape:pagecheckerboard="0"
     inkscape:deskcolor="#505050"
     inkscape:document-units="mm"
     inkscape:export-bgcolor="#9a9200ff"
     inkscape:zoom="1.0242632"
     inkscape:cx="303.14473"
     inkscape:cy="125.45603"
     inkscape:window-width="1920"
     inkscape:window-height="1009"
     inkscape:window-x="-8"
     inkscape:window-y="-8"
     inkscape:window-maximized="1"
     inkscape:current-layer="layer1"
     inkscape:lockguides="false" />
  <defs
     id="defs1" />
  <g
     inkscape:label="Capa 1"
     inkscape:groupmode="layer"
     id="layer1">
    <ellipse
       style="fill:#0000ff;stroke-width:0.264583"
       id="path1"
       cx="12.706785"
       cy="15.360228"
       rx="11.690037"
       ry="11.324723" />
    <path
       style="fill:#0000ff;stroke-width:0.0913283"
       d="M 11.747838,26.581876 C 7.114188,26.239606 3.0161097,23.072805 1.6173158,18.75348 1.2150248,17.511248 1.1080776,16.798622 1.1080776,15.360225 c 0,-1.438394 0.1069472,-2.15102 0.5092382,-3.393255 0.5099791,-1.574757 1.3348864,-2.9422267 2.5366742,-4.2050987 2.283788,-2.399872 5.2047695,-3.64458 8.552796,-3.64458 3.144433,0 5.871351,1.07574 8.1041,3.196987 1.773955,1.685361 2.899701,3.7184007 3.367972,6.0823867 0.165057,0.83326 0.165057,3.093863 0,3.927123 -0.694164,3.504364 -2.957021,6.448875 -6.207355,8.077237 -1.853901,0.928775 -4.034661,1.342543 -6.223665,1.180851 z"
       id="path2" />
    <path
       style="fill:#0000ff;stroke-width:0.0913283"
       d="M 74.902717,25.402757 C 70.269067,25.060486 66.17099,21.893686 64.7722,17.57436 c -0.40229,-1.242232 -0.50924,-1.954858 -0.50924,-3.393254 0,-1.438394 0.10695,-2.15102 0.50924,-3.393255 0.50998,-1.5747577 1.33489,-2.9422277 2.536667,-4.2050997 2.28379,-2.399871 5.20477,-3.644579 8.5528,-3.644579 3.14443,0 5.87135,1.07574 8.1041,3.196986 1.77395,1.685362 2.8997,3.718402 3.36797,6.0823867 0.16506,0.833261 0.16506,3.093863 0,3.927124 -0.69416,3.504363 -2.95702,6.448874 -6.20735,8.077236 -1.85391,0.928775 -4.03466,1.342544 -6.22367,1.180852 z"
       id="path2-2" />
    <path
       sodipodi:type="spiral"
       style="fill:none;fill-rule:evenodd;stroke:#000000;stroke-width:0.264583"
       id="path4"
       sodipodi:cx="46.212177"
       sodipodi:cy="35.252766"
       sodipodi:expansion="1"
       sodipodi:revolution="3"
       sodipodi:radius="11.831877"
       sodipodi:argument="-17.123762"
       sodipodi:t0="0"
       d="m 46.212177,35.252766 c -0.09158,0.586119 -0.835261,0.16572 -0.974169,-0.152215 -0.376434,-0.861585 0.486296,-1.673808 1.278599,-1.796125 1.417244,-0.218795 2.546043,1.074926 2.618079,2.404984 0.105716,1.951913 -1.668153,3.434754 -3.531368,3.440034 -2.483372,0.007 -4.329922,-2.262567 -4.261989,-4.657752 0.08549,-3.014096 2.85744,-5.228317 5.784137,-5.083944 3.544622,0.174855 6.128558,3.452548 5.905899,6.910521 -0.262396,4.075101 -4.0478,7.029955 -8.036905,6.727854 -4.60558,-0.348788 -7.932124,-4.643149 -7.549809,-9.16329 0.434411,-5.136072 5.238564,-8.834833 10.289673,-8.371763 5.666581,0.519494 9.737936,5.834032 9.193719,11.416058 -0.604184,6.197106 -6.429538,10.641333 -12.542442,10.015673"
       transform="translate(-34.053361,-20.257855)" />
    <ellipse
       style="fill:#0000ff;stroke-width:0.264583"
       id="path1-8"
       cx="44.620579"
       cy="14.364885"
       rx="11.690037"
       ry="11.324723" />
    <path
       style="fill:#0000ff;stroke-width:0.0913283"
       d="m 43.661634,25.586539 c -4.63365,-0.34227 -8.73173,-3.509071 -10.13053,-7.828396 -0.40229,-1.242232 -0.50923,-1.954858 -0.50923,-3.393255 0,-1.438394 0.10694,-2.15102 0.50923,-3.393255 0.50998,-1.5747567 1.33489,-2.9422267 2.53668,-4.2050987 2.28379,-2.399872 5.20477,-3.64458 8.5528,-3.64458 3.14443,0 5.87135,1.07574 8.1041,3.196987 1.77395,1.685361 2.8997,3.7184007 3.36797,6.0823867 0.16505,0.83326 0.16505,3.093863 0,3.927123 -0.69417,3.504364 -2.95702,6.448875 -6.20736,8.077237 -1.8539,0.928775 -4.03466,1.342543 -6.22366,1.180851 z"
       id="path2-9" />
    <path
       sodipodi:type="spiral"
       style="fill:none;fill-rule:evenodd;stroke:#000000;stroke-width:0.264583"
       id="path4-4"
       sodipodi:cx="46.212177"
       sodipodi:cy="35.252766"
       sodipodi:expansion="1"
       sodipodi:revolution="3"
       sodipodi:radius="11.831877"
       sodipodi:argument="-17.123762"
       sodipodi:t0="0"
       d="m 46.212177,35.252766 c -0.09158,0.586119 -0.835261,0.16572 -0.974169,-0.152215 -0.376434,-0.861585 0.486296,-1.673808 1.278599,-1.796125 1.417244,-0.218795 2.546043,1.074926 2.618079,2.404984 0.105716,1.951913 -1.668153,3.434754 -3.531368,3.440034 -2.483372,0.007 -4.329922,-2.262567 -4.261989,-4.657752 0.08549,-3.014096 2.85744,-5.228317 5.784137,-5.083944 3.544622,0.174855 6.128558,3.452548 5.905899,6.910521 -0.262396,4.075101 -4.0478,7.029955 -8.036905,6.727854 -4.60558,-0.348788 -7.932124,-4.643149 -7.549809,-9.16329 0.434411,-5.136072 5.238564,-8.834833 10.289673,-8.371763 5.666581,0.519494 9.737936,5.834032 9.193719,11.416058 -0.604184,6.197106 -6.429538,10.641333 -12.542442,10.015673"
       transform="rotate(103.04808,54.571496,24.759926)" />
    <path
       sodipodi:type="spiral"
       style="fill:none;fill-rule:evenodd;stroke:#000000;stroke-width:0.264583"
       id="path4-5"
       sodipodi:cx="46.212177"
       sodipodi:cy="35.252766"
       sodipodi:expansion="1"
       sodipodi:revolution="3"
       sodipodi:radius="11.831877"
       sodipodi:argument="-17.123762"
       sodipodi:t0="0"
       d="m 46.212177,35.252766 c -0.09158,0.586119 -0.835261,0.16572 -0.974169,-0.152215 -0.376434,-0.861585 0.486296,-1.673808 1.278599,-1.796125 1.417244,-0.218795 2.546043,1.074926 2.618079,2.404984 0.105716,1.951913 -1.668153,3.434754 -3.531368,3.440034 -2.483372,0.007 -4.329922,-2.262567 -4.261989,-4.657752 0.08549,-3.014096 2.85744,-5.228317 5.784137,-5.083944 3.544622,0.174855 6.128558,3.452548 5.905899,6.910521 -0.262396,4.075101 -4.0478,7.029955 -8.036905,6.727854 -4.60558,-0.348788 -7.932124,-4.643149 -7.549809,-9.16329 0.434411,-5.136072 5.238564,-8.834833 10.289673,-8.371763 5.666581,0.519494 9.737936,5.834032 9.193719,11.416058 -0.604184,6.197106 -6.429538,10.641333 -12.542442,10.015673"
       transform="matrix(-0.67500416,-0.79480686,0.64289251,-0.72779365,84.767757,78.030839)"
       inkscape:transform-center-y="0.060223502"
       inkscape:transform-center-x="0.084968258" />
    <path
       style="fill:#0000ff;stroke-width:0.0913283"
       d="m 106.53449,25.687472 c -4.63366,-0.342271 -8.731733,-3.509071 -10.130523,-7.828397 -0.40229,-1.242232 -0.50924,-1.954858 -0.50924,-3.393254 0,-1.438394 0.10695,-2.15102 0.50924,-3.393255 0.50998,-1.5747577 1.33489,-2.9422277 2.53666,-4.2050997 2.283793,-2.399871 5.204783,-3.644579 8.552813,-3.644579 3.14443,0 5.87135,1.07574 8.1041,3.196986 1.77395,1.685362 2.8997,3.7184017 3.36797,6.0823867 0.16506,0.833261 0.16506,3.093863 0,3.927124 -0.69416,3.504363 -2.95702,6.448874 -6.20735,8.077236 -1.85391,0.928775 -4.03466,1.342544 -6.22367,1.180852 z"
       id="path2-2-6" />
    <path
       sodipodi:type="spiral"
       style="fill:none;fill-rule:evenodd;stroke:#000000;stroke-width:0.264583"
       id="path4-5-1"
       sodipodi:cx="46.212177"
       sodipodi:cy="35.252766"
       sodipodi:expansion="1"
       sodipodi:revolution="3"
       sodipodi:radius="11.831877"
       sodipodi:argument="-17.123762"
       sodipodi:t0="0"
       d="m 46.212177,35.252766 c -0.09158,0.586119 -0.835261,0.16572 -0.974169,-0.152215 -0.376434,-0.861585 0.486296,-1.673808 1.278599,-1.796125 1.417244,-0.218795 2.546043,1.074926 2.618079,2.404984 0.105716,1.951913 -1.668153,3.434754 -3.531368,3.440034 -2.483372,0.007 -4.329922,-2.262567 -4.261989,-4.657752 0.08549,-3.014096 2.85744,-5.228317 5.784137,-5.083944 3.544622,0.174855 6.128558,3.452548 5.905899,6.910521 -0.262396,4.075101 -4.0478,7.029955 -8.036905,6.727854 -4.60558,-0.348788 -7.932124,-4.643149 -7.549809,-9.16329 0.434411,-5.136072 5.238564,-8.834833 10.289673,-8.371763 5.666581,0.519494 9.737936,5.834032 9.193719,11.416058 -0.604184,6.197106 -6.429538,10.641333 -12.542442,10.015673"
       transform="matrix(0.38313146,-0.96982413,0.94482884,0.22426065,55.702246,52.531598)"
       inkscape:transform-center-y="-0.16961853"
       inkscape:transform-center-x="-0.16527299" />
  </g>
</svg>
